<svg width="20" height="20" viewBox="0 0 20 20" fill="none" xmlns="http://www.w3.org/2000/svg">
<mask id="mask0_48_2329" style="mask-type:alpha" maskUnits="userSpaceOnUse" x="0" y="0" width="20" height="20">
<rect width="20" height="20" fill="#D9D9D9"/>
</mask>
<g mask="url(#mask0_48_2329)">
<path d="M10 18C8.89756 18 7.86153 17.7917 6.89192 17.375C5.92231 16.9583 5.07292 16.3854 4.34375 15.6562C3.61458 14.9271 3.04167 14.0767 2.625 13.105C2.20833 12.1334 2 11.0952 2 9.99046C2 8.88571 2.20833 7.85069 2.625 6.88542C3.04167 5.92014 3.61458 5.07292 4.34375 4.34375C5.07292 3.61458 5.92332 3.04167 6.89496 2.625C7.86661 2.20833 8.90481 2 10.0095 2C11.1143 2 12.1493 2.20833 13.1146 2.625C14.0799 3.04167 14.9271 3.61458 15.6562 4.34375C16.3854 5.07292 16.9583 5.92014 17.375 6.88542C17.7917 7.85069 18 8.88889 18 10V11.25C18 12.0117 17.7326 12.6605 17.1979 13.1963C16.6632 13.7321 16.0139 14 15.25 14C14.7778 14 14.3438 13.8819 13.9479 13.6458C13.5521 13.4097 13.2142 13.0972 12.9342 12.7083C12.5475 13.1111 12.1007 13.4271 11.5938 13.6562C11.0868 13.8854 10.5556 14 10 14C8.89333 14 7.95 13.6095 7.17 12.8286C6.39 12.0477 6 11.1033 6 9.99529C6 8.88732 6.39046 7.94444 7.17138 7.16667C7.95229 6.38889 8.89674 6 10.0047 6C11.1127 6 12.0556 6.39 12.8333 7.17C13.6111 7.95 14 8.89333 14 10V11.25C14 11.5995 14.1215 11.8952 14.3646 12.1371C14.6076 12.379 14.9028 12.5 15.25 12.5C15.5972 12.5 15.8924 12.379 16.1354 12.1371C16.3785 11.8952 16.5 11.5995 16.5 11.25V10C16.5 8.19444 15.8681 6.65972 14.6042 5.39583C13.3403 4.13194 11.8056 3.5 10 3.5C8.19444 3.5 6.65972 4.13194 5.39583 5.39583C4.13194 6.65972 3.5 8.19444 3.5 10C3.5 11.8056 4.13194 13.3403 5.39583 14.6042C6.65972 15.8681 8.1969 16.5 10.0074 16.5H13.25C13.4625 16.5 13.6406 16.5715 13.7844 16.7144C13.9281 16.8573 14 17.0344 14 17.2456C14 17.4569 13.9281 17.6354 13.7844 17.7812C13.6406 17.9271 13.4625 18 13.25 18H10ZM10 12.5C10.6944 12.5 11.2847 12.2569 11.7708 11.7708C12.2569 11.2847 12.5 10.6944 12.5 10C12.5 9.30556 12.2569 8.71528 11.7708 8.22917C11.2847 7.74306 10.6944 7.5 10 7.5C9.30556 7.5 8.71528 7.74306 8.22917 8.22917C7.74306 8.71528 7.5 9.30556 7.5 10C7.5 10.6944 7.74306 11.2847 8.22917 11.7708C8.71528 12.2569 9.30556 12.5 10 12.5Z" fill="#EEEEEE"/>
</g>
</svg>
