<svg width="36" height="36" viewBox="0 0 36 36" fill="none" xmlns="http://www.w3.org/2000/svg">
<path fill-rule="evenodd" clip-rule="evenodd" d="M21.1972 0C20.9369 0 20.6952 0.0560038 20.472 0.130671C20.9462 0.448015 21.2065 0.868032 21.3367 1.34405C21.346 1.40938 21.3646 1.45605 21.3739 1.52138C21.3832 1.57739 21.3925 1.63339 21.3925 1.68939C21.4297 2.51075 21.1786 2.61342 21.002 3.09877C20.7324 3.72413 20.8067 4.39615 21.1321 4.93751C21.16 5.00284 21.1972 5.07751 21.2437 5.14285C20.8904 2.78143 22.8521 2.42675 23.2147 1.68939C23.2426 1.04537 22.7126 0.616021 22.2943 0.317344C21.8945 0.0746697 21.5319 0 21.1972 0ZM24.1537 0.532019C24.1165 0.746693 24.1444 0.69069 24.1351 0.802695C24.1258 0.877363 24.1258 0.970702 24.1165 1.04537C24.0979 1.12004 24.0793 1.19471 24.0514 1.26938C24.0329 1.34405 24.005 1.41872 23.9771 1.49338C23.9399 1.56806 23.912 1.63339 23.8748 1.70806C23.8469 1.74541 23.8283 1.78273 23.8004 1.82006C23.7818 1.84807 23.7632 1.87607 23.7446 1.90407C23.6982 1.96941 23.6517 2.03474 23.6052 2.09074C23.5494 2.14674 23.5029 2.21208 23.4378 2.25875V2.26809C23.382 2.31476 23.3263 2.37076 23.2612 2.41743C23.0659 2.56677 22.8428 2.67877 22.6383 2.81878C22.5732 2.86545 22.5081 2.90278 22.4523 2.95878C22.3873 3.00545 22.3315 3.05212 22.2757 3.10812C22.2106 3.16412 22.1641 3.22013 22.1084 3.28546C22.0619 3.34147 22.0061 3.4068 21.9689 3.47214C21.9224 3.53747 21.8759 3.60281 21.8387 3.66814C21.8015 3.74281 21.7737 3.80815 21.7365 3.88281C21.7086 3.95748 21.6807 4.02282 21.6621 4.09749C21.6342 4.18149 21.6156 4.25616 21.597 4.33083C21.5877 4.36818 21.5877 4.41483 21.5784 4.45217C21.5691 4.48952 21.5691 4.52684 21.5599 4.56417C21.5599 4.63884 21.5505 4.72284 21.5505 4.79751C21.5505 4.85352 21.5505 4.90952 21.5599 4.96552C21.5599 5.04019 21.5692 5.11486 21.5877 5.19886C21.5971 5.27353 21.6156 5.3482 21.6342 5.42287C21.6621 5.49754 21.6807 5.57221 21.7086 5.64687C21.7272 5.69355 21.7551 5.74021 21.7737 5.77755L19.6354 4.94685C19.2728 4.84418 18.9195 4.75085 18.5569 4.66684C18.3617 4.62018 18.1664 4.57351 17.9712 4.52684C17.4134 4.41483 16.8463 4.33083 16.2791 4.27483C16.2606 4.27483 16.2512 4.26548 16.2326 4.26548C15.6748 4.20948 15.1263 4.18148 14.5685 4.18148C14.1594 4.18148 13.7503 4.20013 13.3506 4.22815C12.7834 4.2655 12.2163 4.34015 11.6492 4.43349C11.5097 4.45214 11.3703 4.48016 11.2308 4.50816C10.9426 4.56416 10.6637 4.6295 10.3941 4.69483C10.2546 4.73218 10.1152 4.7695 9.97572 4.80684C9.83627 4.86284 9.70611 4.92817 9.57595 4.98418C9.47368 5.03084 9.37142 5.07751 9.26915 5.12418C9.25057 5.13353 9.23195 5.13353 9.22266 5.14284C9.12969 5.1895 9.04602 5.22683 8.96235 5.27351C8.93446 5.28285 8.91586 5.29216 8.89727 5.30151C8.795 5.34817 8.69273 5.40418 8.60906 5.45084C8.54398 5.47884 8.4789 5.51618 8.42312 5.54418C8.39523 5.56284 8.35804 5.58153 8.33944 5.59085C8.25577 5.63752 8.1721 5.68418 8.09772 5.73086C8.01405 5.77752 7.93967 5.82419 7.87459 5.87086C7.80951 5.91753 7.74443 5.95486 7.68865 6.00153C7.67933 6.01087 7.67007 6.01087 7.66076 6.02018C7.60497 6.05753 7.5399 6.10418 7.48412 6.15086C7.48412 6.15086 7.4748 6.1602 7.46554 6.16951C7.41905 6.20686 7.37256 6.24418 7.32608 6.28151C7.3075 6.29086 7.28888 6.30951 7.2703 6.31886C7.22381 6.35621 7.17733 6.40286 7.13084 6.4402C7.12153 6.45885 7.10295 6.4682 7.09364 6.47755C7.03786 6.53355 6.98207 6.58022 6.92629 6.63622C6.91698 6.63622 6.91698 6.64557 6.90771 6.65487C6.85193 6.70154 6.79615 6.75754 6.74036 6.81355C6.73105 6.82289 6.73105 6.8322 6.72178 6.8322C6.6753 6.87886 6.62882 6.92554 6.58233 6.98153C6.56375 7.00019 6.53584 7.01888 6.51725 7.03754C6.47077 7.09354 6.41498 7.14954 6.3592 7.20554C6.34989 7.2242 6.33131 7.23354 6.322 7.25221C6.24762 7.32688 6.18254 7.40155 6.10817 7.47622C6.09885 7.48557 6.08959 7.49487 6.08027 7.50422C5.93152 7.66289 5.77347 7.82156 5.60613 7.96157C5.43878 8.11091 5.26213 8.25091 5.08549 8.37225C4.89955 8.50292 4.7229 8.61492 4.52766 8.72693C4.34172 8.8296 4.14648 8.92294 3.94195 9.00694C3.74671 9.09094 3.54218 9.16561 3.33764 9.23095C2.94716 9.31495 2.54739 9.47362 2.2034 9.50162C2.12902 9.50162 2.04535 9.52028 1.97098 9.52962C1.8873 9.54827 1.81293 9.56697 1.73855 9.58563C1.66417 9.61363 1.58979 9.64163 1.51542 9.66963C1.44104 9.69763 1.36667 9.73496 1.29229 9.7723C1.22721 9.81897 1.15284 9.8563 1.08775 9.90297C1.02268 9.94964 0.957596 10.0056 0.901813 10.0616C0.836736 10.1083 0.771655 10.1736 0.715872 10.2296C0.660089 10.295 0.604307 10.351 0.557823 10.4163C0.511338 10.491 0.455556 10.5563 0.418366 10.631C0.371881 10.6963 0.325397 10.771 0.288207 10.8457C0.251004 10.9297 0.213832 11.0043 0.18594 11.0883C0.158049 11.163 0.130158 11.247 0.102266 11.331C0.0836868 11.4057 0.0650634 11.4804 0.0557823 11.555C0.0557823 11.5644 0.0464709 11.5737 0.0464709 11.583C0.0278912 11.667 0.0278911 11.779 0.0185794 11.835C0.00926806 11.9004 0 11.9564 0 12.0217C0 12.0591 2.89424e-08 12.1057 0.00931139 12.143C0.0186227 12.2084 0.0278908 12.2644 0.0465144 12.3204C0.065094 12.3764 0.0837175 12.4324 0.111591 12.4884V12.4977C0.139483 12.5537 0.176673 12.6097 0.213858 12.6657C0.251061 12.7218 0.288238 12.7778 0.334722 12.8338C0.381206 12.8804 0.436989 12.9364 0.492772 12.9831C0.548555 13.0391 0.604338 13.0858 0.669414 13.1324C0.892545 13.3284 0.948328 13.3938 1.23654 13.5431C1.28302 13.5711 1.32951 13.5898 1.38529 13.6178C1.3946 13.6178 1.40387 13.6271 1.41318 13.6271C1.41318 13.6458 1.41318 13.6551 1.4225 13.6738C1.43181 13.7485 1.45039 13.8231 1.46898 13.8978C1.48756 13.9818 1.51547 14.0565 1.54336 14.1218C1.57125 14.1778 1.58984 14.2338 1.61774 14.2898C1.62705 14.3085 1.63632 14.3272 1.64563 14.3365C1.68283 14.4112 1.72 14.4765 1.75719 14.5418C1.80368 14.6072 1.85016 14.6725 1.89664 14.7378C1.94313 14.7938 1.99891 14.8592 2.05469 14.9152C2.11048 14.9712 2.16626 15.0178 2.23134 15.0738C2.23134 15.0738 2.24065 15.0832 2.24992 15.0832C2.3057 15.1299 2.36149 15.1765 2.41727 15.2139C2.48235 15.2605 2.54743 15.2979 2.6218 15.3352C2.68688 15.3726 2.76126 15.4099 2.83564 15.4379C2.89142 15.4659 2.95649 15.4846 3.02158 15.5032C3.03089 15.5126 3.04016 15.5126 3.05878 15.5219C3.09598 15.5312 3.14245 15.5405 3.17964 15.5499C3.15175 16.0539 3.14244 16.5299 3.21684 16.6979C3.30051 16.8846 3.70958 16.3152 4.11866 15.6619C4.06287 16.3059 4.02568 17.0619 4.11866 17.2859C4.22092 17.5193 4.77875 16.7913 5.26219 15.9886C11.8538 14.4578 17.869 19.0313 18.5012 25.4902C18.3803 24.4822 17.1438 23.9222 16.5767 24.0622C16.2978 24.7529 15.8236 25.6396 15.0613 26.1902C15.1264 25.5742 15.0985 24.9395 14.9683 24.3235C14.7638 25.1822 14.364 25.9849 13.8155 26.6756C12.9323 26.7409 12.049 26.3116 11.5842 25.6676C11.547 25.6396 11.5377 25.5836 11.5098 25.5462C11.4819 25.4809 11.454 25.4156 11.4354 25.3502C11.4075 25.2849 11.389 25.2195 11.3797 25.1542C11.3703 25.0889 11.3703 25.0235 11.3703 24.9489C11.3703 24.9022 11.3703 24.8555 11.3703 24.8089C11.3797 24.7435 11.3982 24.6782 11.4168 24.6129C11.4354 24.5475 11.454 24.4822 11.4819 24.4168C11.5191 24.3515 11.547 24.2862 11.5935 24.2208C11.7515 23.7728 11.7515 23.4088 11.4633 23.1941C11.4075 23.1568 11.3517 23.1288 11.2867 23.1008C11.2495 23.0915 11.203 23.0728 11.1658 23.0635C11.1379 23.0541 11.1193 23.0448 11.0914 23.0355C11.0263 23.0168 10.9613 22.9981 10.8962 22.9888C10.8311 22.9701 10.766 22.9608 10.701 22.9608C10.6359 22.9514 10.5615 22.9421 10.4964 22.9421C10.4499 22.9421 10.4034 22.9515 10.357 22.9515C10.2826 22.9515 10.2175 22.9608 10.1524 22.9795C10.0873 22.9888 10.0223 22.9981 9.95719 23.0168C9.89211 23.0355 9.82703 23.0542 9.76195 23.0822C9.69687 23.1102 9.64109 23.1382 9.57601 23.1662C9.52023 23.1942 9.46445 23.2315 9.39936 23.2595C7.23315 24.6782 8.52544 28.001 10.0037 28.9624C9.44585 29.065 8.87873 29.1864 8.72068 29.3077C8.71137 29.3171 8.7021 29.3264 8.7021 29.3264C9.10188 29.569 9.52024 29.7744 9.9572 29.9517C10.5522 30.1477 11.1844 30.3251 11.4633 30.3997V30.4091C12.235 30.5678 13.0159 30.6238 13.8062 30.5771C17.9248 30.2877 21.2996 27.1423 21.9132 22.9982C21.9318 23.0822 21.9504 23.1568 21.969 23.2408C21.9969 23.4088 22.0341 23.5862 22.0527 23.7635V23.7729C22.0713 23.8569 22.0806 23.9409 22.0899 24.0155V24.0529C22.0992 24.1369 22.1085 24.2209 22.1085 24.2956C22.1178 24.3982 22.127 24.5009 22.127 24.6036V24.7529C22.127 24.7996 22.1363 24.8556 22.1363 24.9023C22.1363 24.9583 22.127 25.0143 22.127 25.0703V25.2009C22.127 25.2663 22.1177 25.3223 22.1177 25.3876C22.1177 25.425 22.1177 25.4623 22.1084 25.509C22.1084 25.5743 22.0991 25.6396 22.0991 25.7143C22.0898 25.7423 22.0898 25.7703 22.0898 25.7983C22.0805 25.873 22.0712 25.9383 22.0619 26.013C22.0619 26.041 22.0619 26.069 22.0526 26.097C22.0432 26.1903 22.0247 26.2743 22.0154 26.3676V26.377V26.3864C21.9968 26.4704 21.9782 26.5637 21.9596 26.6477V26.6757C21.941 26.7597 21.9224 26.8437 21.9038 26.9277C21.9038 26.9371 21.8945 26.9557 21.8945 26.965C21.8759 27.0491 21.8573 27.1331 21.8294 27.2171V27.2451C21.8015 27.3384 21.7736 27.4224 21.755 27.5064C21.7457 27.5157 21.7457 27.5251 21.7457 27.5251C21.7178 27.6184 21.69 27.7117 21.6621 27.8051C21.6249 27.8984 21.597 27.9824 21.5598 28.0757C21.5226 28.1691 21.4947 28.2624 21.4575 28.3464C21.4203 28.4398 21.3831 28.5238 21.346 28.6171H21.3366C21.2994 28.7011 21.2623 28.7944 21.2158 28.8784C21.2065 28.9064 21.1972 28.9251 21.1879 28.9438C21.1786 28.9531 21.1786 28.9624 21.1693 28.9718C20.565 30.1945 19.6725 31.2679 18.5568 32.1079C18.4825 32.1546 18.4081 32.2106 18.3337 32.2666C18.3151 32.2852 18.2872 32.2946 18.2686 32.3132C18.2035 32.3599 18.1385 32.4066 18.0641 32.4532L18.092 32.5092H18.1013C18.2314 32.4906 18.3616 32.4719 18.4918 32.4532H18.5011C18.7428 32.4159 18.9845 32.3692 19.2262 32.3226C19.2913 32.3132 19.3657 32.2946 19.4308 32.2759C19.4773 32.2665 19.5145 32.2572 19.5609 32.2479C19.626 32.2385 19.6911 32.2199 19.7562 32.2105C19.812 32.1919 19.8677 32.1825 19.9235 32.1639C20.8532 31.9399 21.755 31.6318 22.6197 31.2678C21.1414 33.2932 19.1612 34.9266 16.8462 36C17.9154 35.9253 18.9845 35.748 20.0165 35.4493C23.7632 34.3386 26.9149 31.8092 28.8022 28.4024C28.421 30.5585 27.5657 32.6119 26.3013 34.4039C27.2031 33.8066 28.0306 33.1159 28.7836 32.3319C30.8662 30.1478 32.2328 27.3757 32.6977 24.3983C33.0138 25.873 33.1067 27.3944 32.9673 28.8971C39.6798 19.4981 33.5251 9.75375 30.9498 7.187C30.9405 7.16835 30.9313 7.159 30.9313 7.14033C30.9219 7.14968 30.9219 7.14968 30.9219 7.15898C30.9219 7.14964 30.9219 7.14964 30.9126 7.14033C30.9126 7.25234 30.9033 7.36434 30.894 7.47634C30.8661 7.69102 30.8383 7.89636 30.8011 8.1017C30.7546 8.30704 30.6988 8.51237 30.643 8.71772C30.5779 8.91372 30.5036 9.11906 30.4199 9.31507C30.3362 9.50174 30.2432 9.69775 30.141 9.88443C30.0387 10.0618 29.9271 10.2484 29.8063 10.4164C29.6854 10.5938 29.5553 10.7618 29.4251 10.9205C29.2856 11.0885 29.1369 11.2378 28.9881 11.3871C28.8952 11.4711 28.8115 11.5458 28.7185 11.6205C28.6442 11.6858 28.5791 11.7418 28.5047 11.8072C28.3373 11.9378 28.17 12.0592 27.9841 12.1712C27.8074 12.2832 27.6215 12.3952 27.4355 12.4885C27.2403 12.5819 27.0451 12.6659 26.8498 12.7499C26.6546 12.8245 26.45 12.8899 26.2455 12.9459C26.041 13.0019 25.8271 13.0485 25.6226 13.0859C25.4088 13.1232 25.1949 13.1419 24.9904 13.1605C24.8417 13.1699 24.6929 13.1792 24.5442 13.1792C24.3303 13.1792 24.1165 13.1605 23.912 13.1418C23.6981 13.1232 23.4843 13.0952 23.2798 13.0485C23.0659 13.0112 22.8614 12.9552 22.6568 12.8898H22.6475C22.8521 12.8712 23.0566 12.8525 23.2611 12.8152C23.475 12.7778 23.6795 12.7312 23.884 12.6752C24.0886 12.6192 24.2931 12.5538 24.4884 12.4791C24.6929 12.4045 24.8881 12.3111 25.0741 12.2178C25.2693 12.1245 25.446 12.0218 25.6319 11.9098C25.8085 11.7885 25.9852 11.6671 26.1525 11.5364C26.3199 11.4058 26.4779 11.2658 26.6267 11.1164C26.7847 10.9764 26.9242 10.8178 27.0636 10.6591C27.2031 10.4911 27.3333 10.3231 27.4541 10.1551C27.4727 10.1271 27.4913 10.0897 27.5099 10.0617C27.6029 9.91239 27.6958 9.76306 27.7795 9.61372C27.8818 9.42704 27.9748 9.24037 28.0584 9.04437C28.1421 8.84836 28.2165 8.65235 28.2816 8.44701C28.3466 8.251 28.3931 8.04566 28.4396 7.84033C28.4768 7.62565 28.514 7.42031 28.5326 7.21497C28.5512 7.0003 28.5698 6.78562 28.5698 6.58028C28.5698 6.43094 28.5605 6.2816 28.5512 6.13227C28.5326 5.91759 28.5047 5.71225 28.4768 5.50691C28.4396 5.29224 28.3932 5.0869 28.3374 4.88155C28.2723 4.68555 28.2072 4.48021 28.1328 4.2842C28.0585 4.08819 27.9655 3.89219 27.8725 3.70551C27.7702 3.51884 27.668 3.33217 27.5564 3.15483C27.4356 2.97749 27.3147 2.80948 27.1845 2.64148C27.0451 2.4828 26.9056 2.32413 26.7569 2.16546C26.6825 2.09079 26.5988 2.00679 26.5151 1.93212C26.0968 1.60544 25.6598 1.29743 25.2229 1.01742C25.1578 0.980073 25.102 0.952084 25.0369 0.924082C24.7301 0.728078 24.4419 0.625353 24.1537 0.532019Z" fill="#EEEEEE"/>
</svg>
