<svg width="36" height="36" viewBox="0 0 36 36" fill="none" xmlns="http://www.w3.org/2000/svg">
<path fill-rule="evenodd" clip-rule="evenodd" d="M20.842 2C20.6106 2 20.3957 2.04978 20.1974 2.11615C20.6188 2.39824 20.8502 2.77158 20.9659 3.19471C20.9742 3.25278 20.9907 3.29427 20.999 3.35234C21.0073 3.40212 21.0155 3.4519 21.0155 3.50168C21.0486 4.23178 20.8254 4.32304 20.6684 4.75447C20.4288 5.31034 20.4949 5.90769 20.7841 6.3889C20.8089 6.44697 20.842 6.51334 20.8833 6.57142C20.5693 4.47238 22.313 4.15711 22.6353 3.50168C22.6601 2.92922 22.189 2.54757 21.8171 2.28208C21.4618 2.06637 21.1395 2 20.842 2ZM23.4699 2.47291C23.4369 2.66373 23.4617 2.61395 23.4534 2.71351C23.4451 2.77988 23.4451 2.86285 23.4369 2.92922C23.4204 2.99559 23.4038 3.06196 23.3791 3.12834C23.3625 3.19471 23.3377 3.26108 23.3129 3.32745C23.2799 3.39383 23.2551 3.4519 23.222 3.51828C23.1972 3.55148 23.1807 3.58465 23.1559 3.61784C23.1394 3.64272 23.1229 3.66761 23.1063 3.6925C23.065 3.75058 23.0237 3.80866 22.9824 3.85843C22.9328 3.90822 22.8915 3.96629 22.8336 4.00778V4.01608C22.784 4.05757 22.7345 4.10735 22.6766 4.14883C22.5031 4.28157 22.3047 4.38113 22.1229 4.50558C22.0651 4.54706 22.0072 4.58025 21.9576 4.63003C21.8998 4.67151 21.8502 4.71299 21.8006 4.76277C21.7428 4.81255 21.7015 4.86233 21.6519 4.92041C21.6105 4.97019 21.561 5.02827 21.5279 5.08634C21.4866 5.14442 21.4453 5.20249 21.4122 5.26057C21.3791 5.32694 21.3544 5.38502 21.3213 5.45139C21.2965 5.51776 21.2717 5.57584 21.2552 5.64221C21.2304 5.71688 21.2139 5.78325 21.1973 5.84963C21.1891 5.88283 21.1891 5.9243 21.1808 5.95748C21.1725 5.99068 21.1725 6.02385 21.1643 6.05704C21.1643 6.12341 21.156 6.19808 21.156 6.26446C21.156 6.31424 21.156 6.36402 21.1643 6.4138C21.1643 6.48017 21.1726 6.54654 21.1891 6.62121C21.1974 6.68758 21.2139 6.75395 21.2304 6.82033C21.2552 6.8867 21.2718 6.95307 21.2965 7.01944C21.3131 7.06093 21.3379 7.10241 21.3544 7.1356L19.4537 6.3972C19.1314 6.30594 18.8173 6.22298 18.495 6.1483C18.3215 6.10682 18.1479 6.06534 17.9744 6.02386C17.4785 5.9243 16.9744 5.84963 16.4703 5.79985C16.4538 5.79985 16.4455 5.79154 16.429 5.79154C15.9332 5.74176 15.4456 5.71687 14.9498 5.71687C14.5861 5.71687 14.2225 5.73345 13.8672 5.75835C13.3631 5.79155 12.8589 5.85792 12.3548 5.94088C12.2309 5.95746 12.1069 5.98236 11.983 6.00725C11.7268 6.05703 11.4789 6.11511 11.2392 6.17319C11.1152 6.20639 10.9913 6.23956 10.8673 6.27274C10.7434 6.32252 10.6277 6.3806 10.512 6.43038C10.4211 6.47186 10.3301 6.51334 10.2392 6.55483C10.2227 6.56314 10.2062 6.56314 10.1979 6.57141C10.1153 6.61289 10.0409 6.64607 9.96653 6.68756C9.94174 6.69587 9.92521 6.70414 9.90868 6.71245C9.81778 6.75393 9.72687 6.80371 9.6525 6.84519C9.59465 6.87008 9.5368 6.90327 9.48722 6.92816C9.46242 6.94474 9.42937 6.96136 9.41284 6.96965C9.33846 7.01113 9.26409 7.05261 9.19797 7.09409C9.1236 7.13558 9.05749 7.17706 8.99964 7.21854C8.94179 7.26003 8.88394 7.29321 8.83435 7.33469C8.82608 7.343 8.81784 7.343 8.80956 7.35127C8.75998 7.38447 8.70213 7.42594 8.65255 7.46743C8.65255 7.46743 8.64427 7.47573 8.63603 7.48401C8.59471 7.51721 8.55339 7.55038 8.51207 7.58356C8.49555 7.59187 8.479 7.60845 8.46249 7.61676C8.42117 7.64996 8.37985 7.69143 8.33853 7.72462C8.33025 7.7412 8.31374 7.74951 8.30546 7.75782C8.25587 7.8076 8.20629 7.84908 8.1567 7.89886C8.14843 7.89886 8.14843 7.90717 8.14019 7.91544C8.0906 7.95692 8.04102 8.0067 7.99144 8.05649C7.98316 8.06479 7.98316 8.07306 7.97492 8.07306C7.9336 8.11455 7.89228 8.15603 7.85096 8.20581C7.83444 8.22239 7.80964 8.23901 7.79311 8.25559C7.75179 8.30537 7.70221 8.35515 7.65262 8.40493C7.64434 8.42151 7.62783 8.42982 7.61955 8.44641C7.55344 8.51279 7.49559 8.57916 7.42948 8.64553C7.4212 8.65384 7.41297 8.66211 7.40469 8.67042C7.27246 8.81146 7.13197 8.9525 6.98322 9.07695C6.83447 9.20969 6.67745 9.33414 6.52043 9.442C6.35515 9.55816 6.19814 9.65771 6.02459 9.75727C5.85931 9.84853 5.68576 9.9315 5.50396 10.0062C5.33041 10.0808 5.1486 10.1472 4.96679 10.2053C4.6197 10.28 4.26435 10.421 3.95858 10.4459C3.89247 10.4459 3.81809 10.4625 3.75198 10.4708C3.6776 10.4874 3.61149 10.504 3.54538 10.5206C3.47927 10.5454 3.41315 10.5703 3.34704 10.5952C3.28093 10.6201 3.21482 10.6533 3.1487 10.6865C3.09085 10.728 3.02474 10.7612 2.96689 10.8026C2.90905 10.8441 2.8512 10.8939 2.80161 10.9437C2.74377 10.9852 2.68592 11.0432 2.63633 11.093C2.58675 11.1511 2.53716 11.2009 2.49584 11.259C2.45452 11.3253 2.40494 11.3834 2.37188 11.4498C2.33056 11.5079 2.28924 11.5742 2.25618 11.6406C2.22311 11.7153 2.19007 11.7816 2.16528 11.8563C2.14049 11.9227 2.1157 11.9973 2.0909 12.072C2.07439 12.1384 2.05783 12.2048 2.04958 12.2711C2.04958 12.2795 2.04131 12.2877 2.04131 12.296C2.02479 12.3707 2.02479 12.4703 2.01652 12.52C2.00824 12.5781 2 12.6279 2 12.686C2 12.7192 2 12.7606 2.00828 12.7938C2.01655 12.8519 2.02479 12.9017 2.04135 12.9515C2.05786 13.0012 2.07442 13.051 2.09919 13.1008V13.1091C2.12398 13.1589 2.15704 13.2087 2.1901 13.2584C2.22317 13.3082 2.25621 13.358 2.29753 13.4078C2.33885 13.4493 2.38843 13.499 2.43802 13.5405C2.4876 13.5903 2.53719 13.6318 2.59503 13.6733C2.79337 13.8475 2.84296 13.9056 3.09914 14.0383C3.14046 14.0632 3.18179 14.0798 3.23137 14.1047C3.23965 14.1047 3.24789 14.113 3.25616 14.113C3.25616 14.1296 3.25616 14.1379 3.26444 14.1545C3.27272 14.2209 3.28923 14.2872 3.30576 14.3536C3.32228 14.4283 3.34708 14.4947 3.37188 14.5527C3.39667 14.6025 3.41319 14.6523 3.43799 14.7021C3.44626 14.7186 3.4545 14.7353 3.46278 14.7435C3.49585 14.8099 3.52889 14.868 3.56194 14.9261C3.60327 14.9841 3.64459 15.0422 3.68591 15.1003C3.72723 15.1501 3.77681 15.2082 3.82639 15.2579C3.87598 15.3077 3.92556 15.3492 3.98341 15.399C3.98341 15.399 3.99169 15.4073 3.99993 15.4073C4.04951 15.4488 4.0991 15.4903 4.14868 15.5234C4.20653 15.5649 4.26438 15.5981 4.33049 15.6313C4.38834 15.6645 4.45445 15.6977 4.52056 15.7226C4.57015 15.7475 4.628 15.764 4.68585 15.7806C4.69412 15.789 4.70236 15.789 4.71891 15.7972C4.75198 15.8055 4.79329 15.8138 4.82635 15.8221C4.80155 16.2701 4.79328 16.6933 4.85942 16.8426C4.93379 17.0085 5.29741 16.5024 5.66103 15.9217C5.61144 16.4941 5.57838 17.1662 5.66103 17.3653C5.75193 17.5727 6.24777 16.9256 6.67751 16.2121C12.5367 14.8514 17.8836 18.9167 18.4455 24.658C18.3381 23.7619 17.239 23.2641 16.7349 23.3886C16.4869 24.0025 16.0655 24.7907 15.3878 25.2802C15.4457 24.7326 15.4209 24.1685 15.3052 23.6209C15.1234 24.3842 14.768 25.0977 14.2804 25.7116C13.4953 25.7697 12.7103 25.3881 12.2971 24.8156C12.264 24.7907 12.2557 24.7409 12.2309 24.7078C12.2062 24.6497 12.1814 24.5916 12.1648 24.5335C12.14 24.4755 12.1235 24.4174 12.1152 24.3593C12.107 24.3012 12.107 24.2431 12.107 24.1768C12.107 24.1353 12.107 24.0938 12.107 24.0523C12.1152 23.9942 12.1318 23.9362 12.1483 23.8781C12.1648 23.82 12.1814 23.7619 12.2061 23.7039C12.2392 23.6458 12.264 23.5877 12.3053 23.5296C12.4458 23.1314 12.4458 22.8078 12.1896 22.617C12.14 22.5838 12.0904 22.5589 12.0326 22.534C11.9995 22.5257 11.9582 22.5092 11.9252 22.5008C11.9004 22.4925 11.8838 22.4843 11.859 22.476C11.8012 22.4594 11.7433 22.4428 11.6855 22.4345C11.6277 22.4179 11.5698 22.4096 11.512 22.4096C11.4541 22.4013 11.388 22.393 11.3301 22.393C11.2888 22.393 11.2475 22.4013 11.2062 22.4013C11.1401 22.4013 11.0822 22.4096 11.0244 22.4262C10.9665 22.4345 10.9087 22.4428 10.8508 22.4594C10.793 22.476 10.7351 22.4926 10.6773 22.5175C10.6194 22.5424 10.5699 22.5673 10.512 22.5921C10.4624 22.617 10.4128 22.6502 10.355 22.6751C8.42947 23.9362 9.57817 26.8898 10.8922 27.7443C10.3963 27.8356 9.89221 27.9434 9.75172 28.0513C9.74344 28.0596 9.7352 28.0679 9.7352 28.0679C10.0906 28.2836 10.4624 28.4661 10.8508 28.6238C11.3797 28.798 11.9417 28.9556 12.1896 29.022V29.0303C12.8755 29.1713 13.5697 29.2211 14.2722 29.1796C17.9331 28.9224 20.933 26.1265 21.4784 22.4428C21.4949 22.5175 21.5115 22.5838 21.528 22.6585C21.5528 22.8079 21.5858 22.9655 21.6024 23.1231V23.1314C21.6189 23.2061 21.6272 23.2808 21.6354 23.3472V23.3804C21.6437 23.455 21.652 23.5297 21.652 23.5961C21.6602 23.6873 21.6685 23.7786 21.6685 23.8699V24.0026C21.6685 24.0441 21.6768 24.0939 21.6768 24.1353C21.6768 24.1851 21.6685 24.2349 21.6685 24.2847V24.4008C21.6685 24.4589 21.6602 24.5087 21.6602 24.5668C21.6602 24.6 21.6602 24.6331 21.6519 24.6746C21.6519 24.7327 21.6436 24.7908 21.6436 24.8571C21.6354 24.882 21.6354 24.9069 21.6354 24.9318C21.6271 24.9982 21.6188 25.0563 21.6106 25.1226C21.6106 25.1475 21.6106 25.1724 21.6023 25.1973C21.594 25.2803 21.5775 25.3549 21.5692 25.4379V25.4462V25.4545C21.5527 25.5292 21.5361 25.6122 21.5196 25.6868V25.7117C21.5031 25.7864 21.4866 25.8611 21.47 25.9357C21.47 25.9441 21.4618 25.9606 21.4618 25.9689C21.4453 26.0436 21.4287 26.1183 21.4039 26.1929V26.2178C21.3791 26.3008 21.3543 26.3755 21.3378 26.4501C21.3295 26.4584 21.3295 26.4667 21.3295 26.4667C21.3047 26.5497 21.28 26.6326 21.2552 26.7156C21.2221 26.7986 21.1973 26.8732 21.1643 26.9562C21.1312 27.0392 21.1064 27.1221 21.0734 27.1968C21.0403 27.2798 21.0072 27.3545 20.9742 27.4374H20.9659C20.9328 27.5121 20.8998 27.5951 20.8585 27.6697C20.8502 27.6946 20.8419 27.7112 20.8337 27.7278C20.8254 27.7361 20.8254 27.7444 20.8172 27.7527C20.28 28.8395 19.4866 29.7936 18.495 30.5403C18.4288 30.5818 18.3627 30.6316 18.2966 30.6814C18.2801 30.698 18.2553 30.7063 18.2388 30.7229C18.1809 30.7643 18.1231 30.8058 18.057 30.8473L18.0818 30.8971H18.09C18.2057 30.8805 18.3214 30.8639 18.4371 30.8473H18.4454C18.6603 30.8141 18.8751 30.7726 19.09 30.7312C19.1478 30.7228 19.214 30.7063 19.2718 30.6897C19.3131 30.6814 19.3462 30.6731 19.3875 30.6648C19.4453 30.6565 19.5032 30.6399 19.561 30.6316C19.6106 30.615 19.6602 30.6067 19.7098 30.5901C20.5362 30.391 21.3378 30.1172 22.1064 29.7936C20.7924 31.594 19.0321 33.0459 16.9744 34C17.9248 33.9336 18.8751 33.776 19.7924 33.5105C23.1229 32.5232 25.9244 30.2748 27.602 27.2466C27.2631 29.1631 26.5028 30.9883 25.3789 32.5813C26.1805 32.0503 26.916 31.4364 27.5854 30.7394C29.4366 28.798 30.6514 26.334 31.0646 23.6873C31.3456 24.9982 31.4282 26.3506 31.3043 27.6863C37.2709 19.3316 31.8001 10.67 29.511 8.38844C29.5027 8.37186 29.4944 8.36355 29.4944 8.34696C29.4862 8.35527 29.4862 8.35527 29.4862 8.36354C29.4862 8.35523 29.4862 8.35523 29.4779 8.34696C29.4779 8.44652 29.4696 8.54608 29.4614 8.64564C29.4366 8.83646 29.4118 9.01898 29.3787 9.20151C29.3374 9.38403 29.2878 9.56655 29.2382 9.74908C29.1804 9.92331 29.1143 10.1058 29.0399 10.2801C28.9655 10.446 28.8829 10.6202 28.792 10.7862C28.7011 10.9438 28.6019 11.1097 28.4945 11.2591C28.387 11.4167 28.2713 11.566 28.1556 11.7071C28.0317 11.8564 27.8995 11.9892 27.7672 12.1219C27.6846 12.1966 27.6102 12.2629 27.5276 12.3293C27.4615 12.3874 27.4036 12.4372 27.3375 12.4952C27.1888 12.6114 27.04 12.7193 26.8747 12.8188C26.7177 12.9184 26.5524 13.0179 26.3871 13.1009C26.2136 13.1839 26.0401 13.2585 25.8665 13.3332C25.693 13.3996 25.5112 13.4577 25.3293 13.5074C25.1475 13.5572 24.9575 13.5987 24.7757 13.6319C24.5856 13.6651 24.3955 13.6817 24.2137 13.6983C24.0815 13.7066 23.9493 13.7148 23.817 13.7148C23.6269 13.7148 23.4369 13.6983 23.2551 13.6816C23.065 13.6651 22.8749 13.6402 22.6931 13.5987C22.503 13.5655 22.3212 13.5157 22.1394 13.4576H22.1311C22.313 13.4411 22.4948 13.4244 22.6766 13.3913C22.8666 13.3581 23.0485 13.3166 23.2303 13.2668C23.4121 13.217 23.5939 13.1589 23.7674 13.0926C23.9492 13.0262 24.1228 12.9432 24.2881 12.8603C24.4616 12.7773 24.6186 12.686 24.7839 12.5865C24.9409 12.4786 25.0979 12.3708 25.2467 12.2546C25.3954 12.1385 25.5359 12.014 25.6682 11.8813C25.8087 11.7568 25.9326 11.6158 26.0566 11.4747C26.1805 11.3254 26.2962 11.1761 26.4037 11.0267C26.4202 11.0018 26.4367 10.9687 26.4532 10.9438C26.5359 10.811 26.6185 10.6783 26.6929 10.5455C26.7838 10.3796 26.8664 10.2137 26.9408 10.0394C27.0152 9.86521 27.0813 9.69098 27.1392 9.50846C27.197 9.33422 27.2383 9.1517 27.2797 8.96918C27.3127 8.77836 27.3458 8.59583 27.3623 8.41331C27.3788 8.22248 27.3954 8.03166 27.3954 7.84914C27.3954 7.71639 27.3871 7.58365 27.3788 7.4509C27.3623 7.26008 27.3375 7.07756 27.3127 6.89503C27.2797 6.70421 27.2384 6.52169 27.1888 6.33916C27.1309 6.16493 27.0731 5.98241 27.007 5.80818C26.9408 5.63395 26.8582 5.45972 26.7756 5.29379C26.6847 5.12786 26.5938 4.96193 26.4946 4.80429C26.3872 4.64666 26.2797 4.49732 26.164 4.34798C26.0401 4.20694 25.9161 4.0659 25.7839 3.92485C25.7178 3.85848 25.6434 3.78381 25.569 3.71744C25.1971 3.42706 24.8087 3.15327 24.4203 2.90437C24.3625 2.87118 24.3129 2.8463 24.255 2.82141C23.9823 2.64718 23.7261 2.55587 23.4699 2.47291Z" fill="#EEEEEE"/>
</svg>
