<svg width="36" height="36" viewBox="0 0 36 36" fill="none" xmlns="http://www.w3.org/2000/svg">
<path d="M29.5983 12.3716C29.2148 12.2411 28.8285 12.1194 28.4396 12.0068C28.5041 11.7451 28.5636 11.4819 28.6181 11.2173C29.4955 6.96306 28.9218 3.53578 26.9636 2.40756C25.0887 1.32495 22.0138 2.45317 18.912 5.15073C18.607 5.4169 18.3082 5.69104 18.0157 5.97316C17.8208 5.78575 17.6208 5.60232 17.4158 5.42288C14.1647 2.5384 10.906 1.32345 8.95013 2.45541C7.0752 3.54027 6.51798 6.76194 7.3077 10.7941C7.38669 11.1928 7.47544 11.5898 7.57393 11.9851C7.1127 12.1159 6.66722 12.2558 6.24124 12.4038C2.4344 13.7309 0 15.8116 0 17.9694C0 20.1989 2.61289 22.4344 6.58248 23.7899C6.90446 23.8991 7.22945 24.0005 7.55743 24.0942C7.45094 24.5174 7.35669 24.9453 7.2747 25.378C6.52473 29.3406 7.1097 32.486 8.98088 33.5641C10.9135 34.6774 14.1557 33.5335 17.316 30.7746C17.566 30.5563 17.816 30.3257 18.066 30.083C18.382 30.3875 18.707 30.6831 19.041 30.9697C22.1008 33.6 25.1225 34.6624 26.9906 33.5813C28.9218 32.4643 29.5495 29.0849 28.7343 24.9735C28.6718 24.6595 28.5998 24.339 28.5183 24.012C28.7463 23.9447 28.9695 23.8752 29.188 23.8034C33.3129 22.4374 36 20.2288 36 17.9716C35.9985 15.8034 33.4861 13.7092 29.5983 12.3716ZM19.9237 6.30961C22.5808 3.99859 25.0647 3.08644 26.1972 3.7384C27.4024 4.43298 27.8711 7.23372 27.1136 10.907C27.0636 11.1462 27.0096 11.3847 26.9516 11.6225C25.3659 11.2629 23.7579 11.0091 22.1383 10.8629C21.211 9.53119 20.1945 8.26351 19.0957 7.06848C19.3647 6.8083 19.6402 6.55534 19.9222 6.30961H19.9237ZM10.6293 19.8131C10.9548 20.4412 11.295 21.0615 11.65 21.6741C12.0115 22.2991 12.3882 22.9149 12.7802 23.5215C11.6658 23.4007 10.5584 23.2228 9.46236 22.9884C9.78034 21.9626 10.1718 20.8972 10.6293 19.8131ZM10.6293 16.1997C10.1793 15.1387 9.79834 14.095 9.4856 13.0872C10.5131 12.8576 11.608 12.67 12.7495 12.5279C12.367 13.123 11.999 13.7269 11.6455 14.3395C11.292 14.9521 10.9525 15.5721 10.6271 16.1997H10.6293ZM11.4468 18.0068C11.9208 17.0214 12.4312 16.0549 12.9782 15.1073C13.5247 14.1603 14.1064 13.2349 14.7234 12.3313C15.7943 12.2505 16.8923 12.2079 18.0015 12.2079C19.1107 12.2079 20.2154 12.2505 21.2856 12.332C21.8961 13.2337 22.4743 14.1558 23.0203 15.0984C23.5663 16.0409 24.0835 17.0029 24.572 17.9843C24.09 18.9732 23.574 19.9437 23.024 20.8957C22.4786 21.8428 21.9036 22.7709 21.2991 23.68C20.2304 23.7548 19.1242 23.7959 17.9992 23.7959C16.8743 23.7959 15.7891 23.7608 14.7399 23.6927C14.1184 22.7861 13.5319 21.8567 12.9805 20.9047C12.429 19.9527 11.917 18.9867 11.4445 18.0068H11.4468ZM24.3552 21.6636C24.7177 21.0365 25.0657 20.4013 25.3992 19.7578C25.8563 20.7911 26.2599 21.8472 26.6081 22.9219C25.4992 23.1708 24.378 23.3618 23.249 23.4939C23.63 22.8912 23.9987 22.2812 24.3552 21.6636ZM25.3842 16.2004C25.0522 15.5699 24.707 14.9468 24.3485 14.3313C23.9985 13.7242 23.6338 13.1245 23.2543 12.5324C24.4025 12.6774 25.5042 12.8703 26.5369 13.1058C26.2049 14.156 25.8201 15.1888 25.3842 16.2004ZM18.0165 8.1668C18.7654 8.98257 19.4725 9.83549 20.1352 10.7223C18.7177 10.655 17.2993 10.655 15.8798 10.7223C16.5796 9.79969 17.2958 8.94362 18.0165 8.1668ZM9.72409 3.78401C10.9285 3.08719 13.5917 4.08307 16.3988 6.57054C16.5781 6.72979 16.7588 6.89652 16.9388 7.06923C15.8344 8.26408 14.8107 9.53066 13.8744 10.8606C12.2584 11.0058 10.6536 11.2555 9.07012 11.6083C8.97863 11.2414 8.89613 10.8721 8.82263 10.5003C8.14391 7.04381 8.59314 4.43821 9.72409 3.78401ZM7.96842 22.6139C7.66843 22.5286 7.37219 22.4362 7.0797 22.3365C5.32478 21.7384 3.87509 20.9578 2.87988 20.1077C1.98892 19.3458 1.53744 18.5855 1.53744 17.9694C1.53744 16.6602 3.49185 14.99 6.75122 13.8572C7.1607 13.7152 7.57368 13.5854 7.99017 13.4677C8.47423 15.0186 9.06048 16.5359 9.74509 18.0098C9.05232 19.504 8.45882 21.042 7.96842 22.6139ZM16.3028 29.6172C14.9056 30.8374 13.5062 31.7024 12.2725 32.1383C11.164 32.5293 10.2813 32.5406 9.74809 32.2333C8.61264 31.5791 8.14016 29.0527 8.78438 25.6643C8.86088 25.2656 8.94838 24.8668 9.04687 24.4681C10.6462 24.8115 12.2671 25.0461 13.8984 25.1701C14.8438 26.507 15.876 27.7808 16.9883 28.9832C16.7648 29.2023 16.5361 29.4131 16.3028 29.6172ZM18.0592 27.8811C17.3303 27.0953 16.6028 26.2258 15.8933 25.2912C16.5828 25.3182 17.2848 25.3316 17.9992 25.3316C18.7327 25.3316 19.4587 25.3159 20.1742 25.2838C19.5139 26.1848 18.808 27.0517 18.0592 27.8811ZM27.3979 30.0187C27.1834 31.1731 26.7521 31.9432 26.2189 32.2512C25.0842 32.9077 22.6581 32.0546 20.0422 29.8049C19.7422 29.5477 19.4422 29.2718 19.137 28.9824C20.2276 27.7753 21.2356 26.4964 22.1541 25.1544C23.7944 25.0159 25.4232 24.7648 27.0289 24.403C27.1024 24.6991 27.1674 24.9892 27.2239 25.2733C27.5846 27.0901 27.6363 28.7335 27.3979 30.0187ZM28.7028 22.3447C28.5063 22.4097 28.3038 22.4726 28.0983 22.5339C27.5948 20.9757 26.9857 19.4534 26.2752 17.9776C26.9591 16.5215 27.5443 15.0213 28.0271 13.4872C28.3953 13.5941 28.7531 13.7062 29.0973 13.8251C32.4286 14.9705 34.4611 16.6662 34.4611 17.9694C34.4611 19.36 32.2659 21.1649 28.7028 22.3447Z" fill="#EEEEEE"/>
<path d="M17.9902 21C18.584 21.0019 19.165 20.8276 19.6596 20.4991C20.1542 20.1707 20.5403 19.7028 20.7688 19.1548C20.9974 18.6068 21.0582 18.0033 20.9435 17.4207C20.8289 16.8381 20.5439 16.3027 20.1248 15.8821C19.7056 15.4616 19.1711 15.1749 18.5889 15.0584C18.0067 14.9418 17.403 15.0007 16.8542 15.2274C16.3055 15.4542 15.8364 15.8387 15.5063 16.3323C15.1762 16.8258 15 17.4062 15 18C14.9992 18.3934 15.0759 18.783 15.2258 19.1468C15.3756 19.5105 15.5957 19.8411 15.8734 20.1197C16.1511 20.3983 16.481 20.6195 16.8442 20.7705C17.2074 20.9215 17.5969 20.9995 17.9902 21Z" fill="#EEEEEE"/>
</svg>
