<svg width="36" height="36" viewBox="0 0 36 36" fill="none" xmlns="http://www.w3.org/2000/svg">
<path d="M18.0308 21.1739C19.7836 21.1739 21.2046 19.7529 21.2046 18C21.2046 16.2472 19.7836 14.8262 18.0308 14.8262C16.2779 14.8262 14.8569 16.2472 14.8569 18C14.8569 19.7529 16.2779 21.1739 18.0308 21.1739Z" fill="#EEEEEE"/>
<path d="M18.0304 24.5025C27.436 24.5025 35.0608 21.5912 35.0608 18C35.0608 14.4087 27.436 11.4975 18.0304 11.4975C8.62476 11.4975 1 14.4087 1 18C1 21.5912 8.62476 24.5025 18.0304 24.5025Z" stroke="#EEEEEE"/>
<path d="M12.3989 21.2513C17.1017 29.3968 23.4353 34.5444 26.5454 32.7487C29.6555 30.9531 28.3644 22.8943 23.6616 14.7487C18.9588 6.60324 12.6251 1.45564 9.51504 3.25125C6.40494 5.04687 7.69608 13.1057 12.3989 21.2513Z" stroke="#EEEEEE"/>
<path d="M12.3989 14.7488C7.69608 22.8943 6.40494 30.9531 9.51504 32.7488C12.6251 34.5444 18.9588 29.3968 23.6616 21.2513C28.3644 13.1058 29.6555 5.04689 26.5454 3.25127C23.4353 1.45565 17.1017 6.60325 12.3989 14.7488Z" stroke="#EEEEEE"/>
</svg>
