<svg width="36" height="36" viewBox="0 0 36 36" fill="none" xmlns="http://www.w3.org/2000/svg">
<g clip-path="url(#clip0_230_10)">
<path d="M18.9422 2C26.9972 2 31 5.91642 31 12.1725C31 16.8519 28.1832 19.9035 24.3781 20.4122C27.5902 21.0734 29.4679 22.9554 29.814 26.6683L29.864 27.3511L29.9077 27.9894L29.9455 28.5865L29.9717 29.0367L29.9999 29.568L30.0145 29.8711L30.0354 30.3528L30.0521 30.8076L30.0605 31.0691L30.0717 31.488L30.0814 31.9671L30.085 32.1985L30.0913 32.8693L30.0933 33.5693L30.0935 33.9878H21.7869L21.7873 33.8132L21.7903 33.4742L21.7952 33.144L21.8096 32.3441L21.8132 32.076L21.8161 31.6555L21.8157 31.3866L21.8133 31.1046L21.8099 30.8833L21.8031 30.5734L21.7932 30.2448L21.78 29.8955L21.7631 29.5232L21.7531 29.3279L21.7361 29.0227L21.7165 28.7021L21.6862 28.249L21.6602 27.889C21.6527 27.7779 21.644 27.6695 21.6341 27.5636L21.6129 27.3553C21.3386 24.8957 20.3836 23.8905 18.748 23.5552L18.6101 23.5288C18.5172 23.5122 18.4221 23.4976 18.3249 23.4849L18.1776 23.4672C18.1528 23.4644 18.1278 23.4618 18.1028 23.4593L17.9507 23.4456L17.7955 23.4345L17.6371 23.4258L17.4774 23.4195L17.3145 23.4154L17.1486 23.4134L4 23.4131V16.7502H17.4599C17.6799 16.7502 17.8932 16.7459 18.0997 16.7372L18.3039 16.727L18.5035 16.7139L18.6986 16.6977C18.7308 16.6947 18.7627 16.6916 18.7945 16.6884L18.9828 16.6676C19.1069 16.6527 19.2279 16.6357 19.3458 16.6165L19.5205 16.5862C21.7047 16.1817 22.7967 14.9972 22.7967 12.6859C22.7967 10.092 21.0178 8.5199 17.4599 8.5199H4V2H18.9422ZM12.783 29.0206C13.8729 29.0206 14.3288 29.6388 14.4913 30.2305L14.5127 30.3156L14.5303 30.3999L14.5418 30.4665L14.5467 30.4994L14.5549 30.5644L14.561 30.628L14.5634 30.6593L14.5668 30.7205L14.5678 30.7504L14.5686 30.8087V33.9878H4V29.0206H12.783Z" fill="#EEEEEE"/>
</g>
<defs>
<clipPath id="clip0_230_10">
<rect width="27" height="32" fill="white" transform="translate(4 2)"/>
</clipPath>
</defs>
</svg>
