<svg width="37" height="36" viewBox="0 0 37 36" fill="none" xmlns="http://www.w3.org/2000/svg">
<path d="M36.0582 9.97128C36.0561 9.60922 36.0521 9.24735 36.0421 8.88487C36.021 8.09639 35.9744 7.30075 35.8342 6.52069C35.692 5.72851 35.4596 4.99191 35.0932 4.27229C34.7336 3.56557 34.2635 2.91887 33.7026 2.35806C33.142 1.79724 32.4952 1.32717 31.7882 0.96736C31.0692 0.601425 30.3325 0.369026 29.541 0.226822C28.7606 0.0862556 27.9649 0.0399455 27.1758 0.0186089C26.8135 0.00878922 26.4516 0.00466738 26.0894 0.00242461C25.6595 0 25.2294 0 24.7996 0H15.2699H11.322C10.8918 0 10.4621 0 10.0323 0.00248523C9.67001 0.00472799 9.30765 0.00884984 8.9459 0.0186695C8.74866 0.0240037 8.55099 0.0309138 8.3532 0.0404304C7.7599 0.0690408 7.16569 0.121473 6.58063 0.226883C5.98702 0.333566 5.42415 0.490923 4.87655 0.717322C4.69404 0.792727 4.51316 0.875891 4.33338 0.96736C3.80311 1.23722 3.30667 1.56909 2.85515 1.95472C2.70464 2.08329 2.5591 2.21779 2.41896 2.358C1.85803 2.91881 1.3879 3.56551 1.02826 4.27223C0.661906 4.99185 0.429749 5.72845 0.287424 6.52063C0.147403 7.30069 0.10085 8.09633 0.079635 8.88481C0.0696941 9.24729 0.0655116 9.60916 0.0631476 9.97122C0.0604199 10.4012 0.0607836 10.8313 0.0607836 11.2612V17.1299V24.7386C0.0607836 25.1689 0.0603593 25.5986 0.0631476 26.0289C0.0655116 26.3909 0.0696941 26.7528 0.079635 27.1147C0.10085 27.9036 0.147342 28.6994 0.287424 29.4791C0.429749 30.271 0.661906 31.0083 1.02826 31.7278C1.3879 32.4346 1.85803 33.0812 2.41896 33.6417C2.97947 34.2028 3.62636 34.6728 4.33344 35.0329C5.05252 35.3989 5.78917 35.631 6.58081 35.7732C7.36081 35.9135 8.15705 35.9602 8.94596 35.9813C9.30771 35.9909 9.67007 35.9953 10.0324 35.9973C10.4621 36.0004 10.8918 36 11.322 36H24.7996C25.2294 36 25.6595 36.0004 26.0894 35.9973C26.4515 35.9953 26.8135 35.9909 27.1758 35.9813C27.9649 35.9602 28.7605 35.9135 29.541 35.7732C30.3324 35.631 31.0692 35.3988 31.7882 35.0329C32.4952 34.6729 33.1419 34.2028 33.7026 33.6417C34.2634 33.0811 34.7336 32.4346 35.0932 31.7278C35.4595 31.0083 35.692 30.2711 35.8342 29.4791C35.9743 28.6994 36.0209 27.9036 36.042 27.1147C36.052 26.7528 36.056 26.391 36.0582 26.0289C36.0609 25.5986 36.0607 25.1689 36.0607 24.7386V11.2612C36.0608 10.8313 36.0609 10.4012 36.0582 9.97128Z" fill="#EEEEEE"/>
<path d="M28.5866 22.222C28.5858 22.2209 28.585 22.2201 28.5841 22.2191C28.6239 22.0835 28.665 21.9489 28.6999 21.8099C30.194 15.857 26.5474 8.81891 20.3764 5.1132C23.0807 8.77915 24.2764 13.2195 23.214 17.1026C23.1193 17.449 23.0054 17.7814 22.8795 18.1045C22.7428 18.0147 22.5707 17.9128 22.3395 17.7853C22.3395 17.7853 16.2011 13.9952 9.54798 7.29147C9.37341 7.1155 13.0957 12.6117 17.32 17.0747C15.3298 15.9578 9.78323 11.9222 6.27191 8.70841C6.7033 9.42786 7.21641 10.1206 7.78044 10.7876C10.7127 14.5063 14.5367 19.0945 19.1181 22.6178C15.8992 24.5877 11.3508 24.7409 6.82217 22.6199C5.70206 22.0949 4.64905 21.4616 3.6743 20.7419C5.59126 23.8082 8.54365 26.4537 12.137 27.9981C16.4222 29.8396 20.6835 29.7148 23.8573 28.0283L23.8548 28.0319C23.8693 28.0228 23.8877 28.0128 23.9028 28.0035C24.0331 27.9334 24.1625 27.8621 24.289 27.7867C25.8139 26.9952 28.8258 26.1922 30.4425 29.3377C30.8384 30.1076 31.6798 26.0279 28.5866 22.222Z" fill="#141414"/>
</svg>
