<svg width="36" height="36" viewBox="0 0 36 36" fill="none" xmlns="http://www.w3.org/2000/svg">
<path d="M27.1744 31.7184C22.9307 34.2244 17.0958 34.482 11.2253 31.9099C6.47212 29.8427 2.52822 26.2239 0 22.0893C1.21355 23.123 2.62933 23.9502 4.14622 24.6734C10.2087 27.5782 16.2699 27.3793 20.5354 24.6808C14.4676 19.9254 9.30377 13.715 5.46107 8.65003C4.6517 7.82291 4.04492 6.78909 3.43816 5.85871C8.09004 10.2006 15.4727 15.6793 18.1014 17.2307C12.5402 11.2342 7.58456 3.79141 7.78642 3.99776C16.5848 13.0952 24.7766 18.2643 24.7766 18.2643C25.0477 18.4206 25.2568 18.5506 25.425 18.6669C25.6023 18.2058 25.7578 17.7271 25.8888 17.2307C27.3045 11.9584 25.6869 5.96188 22.147 1C30.338 6.06553 35.1927 15.5761 33.1695 23.5366C33.1168 23.7514 33.0595 23.9634 32.9976 24.1716C37.0422 29.3408 36.001 34.9087 35.4955 33.875C33.3013 29.4858 29.2395 30.8279 27.1744 31.7184Z" fill="#EEEEEE"/>
</svg>
